<?xml version="1.0" encoding="utf-8"?>
<!-- Generator: Adobe Illustrator 16.0.0, SVG Export Plug-In . SVG Version: 6.00 Build 0)  -->
<!DOCTYPE svg PUBLIC "-//W3C//DTD SVG 1.1//EN" "http://www.w3.org/Graphics/SVG/1.1/DTD/svg11.dtd">
<svg version="1.1" id="Warstwa_1" xmlns="http://www.w3.org/2000/svg" xmlns:xlink="http://www.w3.org/1999/xlink" x="0px" y="0px"
	 width="71.916px" height="44.925px" viewBox="0 0 71.916 44.925" enable-background="new 0 0 71.916 44.925" xml:space="preserve">
<path d="M15.233,28.593V44.6h-3.728l-7.068-8.528V44.6h-4.438V28.593h3.728l7.072,8.531v-8.531H15.233z M26.51,44.925
	c-1.587,0.025-3.155-0.344-4.563-1.075c-2.705-1.397-4.384-4.206-4.335-7.25c-0.049-3.044,1.63-5.854,4.335-7.251
	c1.408-0.73,2.976-1.1,4.563-1.075c1.586-0.024,3.154,0.345,4.563,1.075c2.705,1.397,4.384,4.207,4.335,7.251
	c0.049,3.044-1.63,5.854-4.335,7.251C29.665,44.582,28.097,44.951,26.51,44.925z M26.51,41.173c0.771,0.012,1.531-0.186,2.2-0.571
	c0.658-0.384,1.196-0.942,1.555-1.612c0.391-0.736,0.588-1.559,0.572-2.391c0.016-0.832-0.181-1.655-0.572-2.391
	c-0.361-0.67-0.9-1.227-1.559-1.608c-1.365-0.763-3.027-0.763-4.392,0c-0.658,0.384-1.196,0.942-1.555,1.612
	c-0.391,0.735-0.588,1.559-0.572,2.391c-0.016,0.832,0.181,1.655,0.572,2.391c0.36,0.668,0.898,1.225,1.555,1.606
	C24.981,40.985,25.74,41.183,26.51,41.173L26.51,41.173z M40.966,32.184h-4.917v-3.591h14.342v3.591h-4.892V44.6h-4.533V32.184z
	 M64.938,41.1v3.5H52.083V28.593h12.558v3.5h-8.074v2.699h7.115v3.385h-7.115V41.1H64.938z M69.307,44.806
	c-0.691,0.016-1.359-0.248-1.853-0.732c-0.502-0.483-0.776-1.156-0.755-1.853c-0.027-0.695,0.242-1.37,0.742-1.853
	c1.068-0.946,2.674-0.946,3.74,0c0.494,0.486,0.76,1.159,0.732,1.853c0.021,0.694-0.248,1.366-0.743,1.853
	c-0.495,0.49-1.168,0.756-1.864,0.736V44.806z M51.102,20.064v3.951h-16.06V5.947H50.73v3.95H40.643v3.047h8.891v3.821h-8.891v3.299
	H51.102z M7.293,6.007C4.357,6.287,2.072,7.708,0.85,9.994c-1.169,2.192-1.383,6.192-0.479,8.703
	c0.971,2.658,2.869,4.412,5.475,5.063c1.169,0.279,4.557,0.319,5.635,0.053c2.072-0.504,3.705-1.833,4.635-3.76
	c0.467-0.97,0.812-2.1,0.652-2.1c-0.04,0-1.037-0.291-2.246-0.664c-1.195-0.358-2.232-0.664-2.312-0.664
	c-0.066,0-0.239,0.358-0.358,0.783c-0.466,1.568-1.477,2.418-2.977,2.512c-2.072,0.133-3.176-0.93-3.521-3.375
	c-0.173-1.235-0.08-3.162,0.199-4.106c0.691-2.312,3.549-3.201,5.302-1.647c0.333,0.28,0.692,0.759,0.81,1.05
	c0.121,0.307,0.307,0.531,0.426,0.531c0.279,0,4.479-0.916,4.545-0.996c0.133-0.133-0.704-1.847-1.236-2.577
	c-1.023-1.382-2.285-2.192-4.053-2.591C10.217,5.968,8.609,5.875,7.293,6.007z M18.51,14.981v9.034h7.186h7.188v-2.189v-2.19h-4.162
	c-2.286,0-4.258-0.041-4.381-0.083c-0.191-0.066-0.219-0.807-0.219-6.843V5.947h-2.805H18.51V14.981z M52.346,7.011
	c0.373,1.038,0.996,2.696,4.756,12.623l1.703,4.492l3.055,0.043l3.055,0.027l0.139-0.373c0.068-0.221,1.549-4.162,3.262-8.794
	c1.715-4.616,3.152-8.543,3.207-8.736l0.084-0.347h-2.834h-2.85l-0.344,1.134c-2.393,7.812-3.621,11.696-3.691,11.614
	c-0.084-0.084-3.996-12.513-3.996-12.678c0-0.042-1.342-0.07-2.973-0.07h-2.973L52.346,7.011z"/>
</svg>
